PathFileType   4   (X/Y/Z)
DataRate  CameraRate  NumFrames  NumMarkers  Units  OrigDataRate  OrigDataStartFrame  OrigNumFrames  
  120.0      120.0        8         39         mm      120.0          1        240
Frame#      Time	midhip		hip_r		hip_l		knee_r		knee_l		ankle_r		ankle_l		midasis		asis_r		asis_l		psis_r		psis_l		epicondLat_r		epicondLat_l		epicondMed_r		epicondMed_l		malleolusLat_r		malleolusLat_l		malleolusMedv_r		malleolusMedv_l		heel_r		heel_l		sternalnotch		xyphoidprocess		neck		subclavicle_r		subclavicle_l		toe_r		toe_l		thighwand_r		thighwand_l		upperleg1_r		upperleg1_l		upperleg2_r		upperleg2_l		shankwand_r		shankwand_l		lowerleg1_r		lowerleg1_l		
              X1          Y1          Z1          X2          Y2          Z2          X3          Y3          Z3          X4          Y4          Z4          X5          Y5          Z5          X6          Y6          Z6          X7          Y7          Z7          X8          Y8          Z8          X9          Y9          Z9          X10          Y10          Z10          X11          Y11          Z11          X12          Y12          Z12          X13          Y13          Z13          X14          Y14          Z14          X15          Y15          Z15          X16          Y16          Z16          X17          Y17          Z17          X18          Y18          Z18          X19          Y19          Z19          X20          Y20          Z20          X21          Y21          Z21          X22          Y22          Z22          X23          Y23          Z23          X24          Y24          Z24          X25          Y25          Z25          X26          Y26          Z26          X27          Y27          Z27          X28          Y28          Z28          X29          Y29          Z29          X30          Y30          Z30          X31          Y31          Z31          X32          Y32          Z32          X33          Y33          Z33          X34          Y34          Z34          X35          Y35          Z35          X36          Y36          Z36          X37          Y37          Z37          X38          Y38          Z38          X39          Y39          Z39          

	1	0.00833	767.343	762.480	-251.254	774.464	761.046	-181.593	760.222	763.914	-320.916	759.719	424.397	-165.606	743.184	418.497	-324.794	717.326	65.828	-157.271	716.230	67.297	-329.603	838.465	845.171	-256.822	849.727	842.903	-146.645	827.202	847.440	-366.999	661.900	869.819	-206.617	655.806	869.008	-260.290	760.676	427.035	-109.176	739.525	419.305	-380.668	738.844	421.631	-223.846	753.971	421.431	-267.608	711.279	67.403	-120.295	704.556	68.666	-364.158	716.426	61.729	-190.701	717.820	66.856	-296.088	669.074	52.602	-140.917	665.875	49.689	-308.260	810.535	1194.977	-262.521	820.271	1093.375	-267.483	703.383	1263.275	-241.701	819.917	1194.566	-205.994	807.483	1195.946	-313.576	806.480	48.430	-144.894	805.694	46.058	-350.396	895.030	553.718	-154.028	866.186	570.500	-396.583	848.379	598.266	-119.506	851.868	612.382	-326.860	830.033	542.596	-118.446	838.835	555.138	-322.447	847.119	180.709	-136.036	696.158	173.913	-449.922	768.059	165.858	-149.626	708.188	162.131	-372.475
	2	0.01667	767.207	762.488	-251.287	774.256	761.085	-181.617	760.158	763.891	-320.956	759.798	424.409	-165.598	743.141	418.146	-324.885	717.666	65.739	-157.562	716.178	67.269	-329.455	838.280	845.224	-256.812	849.424	843.006	-146.669	827.136	847.442	-366.954	661.762	869.617	-206.608	655.701	869.064	-260.270	760.795	427.051	-109.169	739.628	418.954	-380.769	738.985	421.498	-223.685	755.735	421.047	-266.394	711.642	67.276	-120.581	704.591	68.610	-364.041	716.559	61.827	-190.986	718.096	66.750	-296.024	669.920	52.261	-142.946	665.998	49.644	-308.308	810.557	1195.035	-262.526	820.181	1093.426	-267.554	703.627	1263.350	-241.631	819.946	1194.576	-205.966	807.500	1196.041	-313.614	806.213	48.186	-144.741	805.717	45.890	-350.394	894.921	553.712	-154.033	866.195	570.595	-396.601	848.650	598.340	-119.543	852.068	612.351	-326.848	830.271	542.365	-118.457	839.430	555.159	-322.198	847.385	180.734	-135.828	696.226	173.804	-449.814	767.833	165.813	-149.494	708.523	162.147	-372.320
	3	0.02500	766.995	762.453	-251.304	773.999	761.037	-181.631	759.991	763.869	-320.977	759.883	424.449	-165.614	743.160	418.009	-324.896	718.069	65.556	-157.715	716.187	67.299	-329.378	838.112	845.156	-256.772	849.184	842.917	-146.628	827.039	847.394	-366.916	661.775	869.579	-206.600	655.473	869.115	-260.376	760.855	427.094	-109.184	739.673	418.812	-380.782	739.713	421.108	-223.610	756.342	420.822	-266.004	712.027	67.074	-120.736	704.615	68.631	-363.969	716.869	61.837	-191.173	718.232	66.819	-295.978	671.450	51.666	-146.747	666.132	49.528	-308.327	810.473	1194.940	-262.556	819.905	1093.319	-267.700	703.725	1263.399	-241.557	819.796	1194.394	-206.043	807.476	1196.014	-313.588	806.094	48.055	-144.722	805.686	45.864	-350.430	894.969	553.656	-154.017	866.178	571.052	-396.826	848.814	598.198	-119.522	851.987	612.373	-326.819	830.735	542.371	-118.451	839.510	555.120	-322.106	847.367	180.663	-135.892	696.169	173.779	-449.867	768.021	165.870	-149.532	708.609	162.242	-372.287
	4	0.03333	767.044	762.506	-251.296	774.065	761.070	-181.625	760.023	763.941	-320.967	759.861	424.510	-165.670	743.608	418.156	-324.734	717.903	65.613	-157.692	715.986	66.997	-329.451	838.144	845.222	-256.756	849.245	842.952	-146.597	827.042	847.493	-366.916	661.654	869.636	-206.663	655.419	869.148	-260.417	760.830	427.144	-109.240	739.865	418.942	-380.603	739.741	421.182	-223.754	755.329	421.092	-266.288	711.863	67.141	-120.714	704.264	68.383	-363.990	716.675	61.972	-191.171	717.770	66.676	-295.989	671.415	51.686	-146.759	666.062	49.501	-308.249	810.406	1195.022	-262.554	819.811	1093.257	-267.680	703.694	1263.460	-241.450	819.747	1194.363	-206.121	807.463	1195.938	-313.573	806.080	48.138	-144.820	805.309	45.590	-350.468	895.062	553.790	-154.020	866.193	571.021	-396.891	848.800	598.009	-119.506	851.730	612.438	-326.817	830.789	542.520	-118.475	839.033	555.076	-322.140	847.315	180.656	-136.090	696.153	173.831	-449.898	768.170	165.902	-149.541	708.443	162.277	-372.304
	5	0.04167	766.964	762.529	-251.323	773.960	761.087	-181.649	759.968	763.971	-320.996	759.900	424.549	-165.695	743.769	418.096	-324.678	717.999	65.572	-157.757	715.819	66.789	-329.450	838.064	845.248	-256.750	849.127	842.968	-146.582	827.002	847.528	-366.919	661.594	869.629	-206.692	655.319	869.191	-260.437	760.860	427.184	-109.265	739.940	418.870	-380.542	739.885	421.132	-224.215	754.471	421.363	-266.713	711.952	67.095	-120.779	704.048	68.194	-363.971	717.080	61.869	-191.250	717.448	66.606	-295.957	670.287	52.442	-145.013	667.146	48.969	-308.217	810.351	1195.073	-262.551	819.831	1093.375	-267.619	703.627	1263.438	-241.497	819.601	1194.517	-206.131	807.450	1196.017	-313.574	806.039	48.125	-144.838	805.060	45.358	-350.502	895.091	553.850	-154.002	866.178	571.074	-396.947	848.464	598.099	-119.601	851.651	612.493	-326.816	830.445	542.499	-118.621	838.775	555.086	-322.178	847.342	180.649	-136.142	696.149	173.859	-449.929	768.547	166.074	-149.815	708.301	162.280	-372.335
	6	0.05000	766.879	762.553	-251.360	773.848	761.096	-181.684	759.911	764.011	-321.037	759.923	424.583	-165.720	743.943	418.081	-324.604	718.031	65.543	-157.786	715.637	66.564	-329.464	837.986	845.270	-256.742	849.006	842.965	-146.553	826.965	847.575	-366.931	661.543	869.645	-206.726	655.235	869.220	-260.453	760.875	427.220	-109.290	740.006	418.839	-380.460	740.463	421.040	-224.714	754.709	421.312	-266.973	711.980	67.067	-120.809	703.803	67.993	-363.962	718.073	61.561	-191.296	717.256	66.496	-295.966	670.362	53.083	-147.258	669.492	47.755	-308.384	810.286	1195.131	-262.532	819.813	1093.565	-267.588	703.559	1263.371	-241.656	819.431	1194.685	-206.083	807.335	1196.208	-313.497	806.038	48.142	-144.870	804.797	45.132	-350.533	895.119	553.917	-153.974	866.162	571.069	-396.963	848.265	598.316	-119.634	851.768	612.515	-326.821	830.372	542.470	-118.765	838.948	555.214	-322.270	847.357	180.644	-136.200	696.142	173.894	-449.963	769.588	166.481	-150.477	708.318	162.265	-372.384
	7	0.05833	766.797	762.581	-251.408	773.734	761.099	-181.729	759.859	764.063	-321.087	759.926	424.610	-165.737	744.153	418.108	-324.518	718.095	65.502	-157.797	715.464	66.341	-329.478	837.906	845.299	-256.729	848.878	842.956	-146.524	826.933	847.643	-366.935	661.486	869.663	-206.759	655.160	869.239	-260.463	760.879	427.253	-109.307	740.094	418.846	-380.365	740.132	420.984	-224.034	755.108	421.075	-267.720	712.044	67.024	-120.820	703.559	67.798	-363.951	718.629	61.357	-191.309	717.092	66.350	-295.978	670.755	53.361	-149.433	670.605	47.032	-308.606	810.205	1195.203	-262.497	819.866	1093.690	-267.596	703.525	1263.348	-241.641	819.504	1194.795	-206.084	807.202	1196.332	-313.436	806.049	48.166	-144.894	804.563	44.928	-350.554	895.124	553.989	-153.949	866.157	571.007	-396.933	848.373	598.393	-119.569	851.882	612.578	-326.762	830.384	542.512	-118.534	839.142	555.414	-322.508	847.388	180.650	-136.232	696.133	173.920	-449.976	770.086	166.702	-150.854	708.363	162.222	-372.403
	8	0.06667	766.702	762.609	-251.468	773.606	761.095	-181.786	759.799	764.124	-321.149	759.925	424.636	-165.744	744.291	418.124	-324.451	718.360	65.403	-157.816	715.318	66.156	-329.482	837.813	845.332	-256.715	848.731	842.937	-146.505	826.894	847.726	-366.925	661.428	869.674	-206.787	655.078	869.254	-260.470	760.881	427.287	-109.314	740.141	418.842	-380.292	739.731	420.571	-222.802	755.134	420.833	-268.714	712.312	66.919	-120.838	703.362	67.633	-363.937	718.759	61.355	-191.343	716.915	66.257	-295.976	670.695	53.429	-149.346	670.473	46.946	-308.648	810.112	1195.276	-262.450	819.972	1093.705	-267.677	703.433	1263.357	-241.463	819.616	1194.770	-206.080	807.199	1196.370	-313.459	806.065	48.189	-144.904	804.390	44.773	-350.575	895.098	554.048	-153.931	866.159	570.933	-396.881	848.326	598.559	-119.560	851.851	612.661	-326.695	830.245	542.566	-118.164	839.156	555.516	-322.738	847.421	180.675	-136.232	696.106	173.935	-449.977	770.039	166.739	-150.823	708.336	162.233	-372.412
